<svg width="131" height="18" viewBox="0 0 131 18" fill="none" xmlns="http://www.w3.org/2000/svg">
<path d="M0.321708 3.23995V3.5574H0.63916H1.97654V16.4074V16.7249H2.29399H3.94882H4.26627V16.4074V10.1411H13.8738C14.8675 10.1411 15.7235 9.79347 16.4227 9.09796C17.1379 8.39453 17.4969 7.53358 17.4969 6.52982V4.88289C17.4969 3.89157 17.1422 3.03879 16.4354 2.34336C15.7295 1.63277 14.8697 1.27557 13.8738 1.27557H0.63916H0.321708V1.59302V3.23995ZM13.8738 7.85531H4.26627V3.55341H13.8738C14.2355 3.55341 14.5419 3.6811 14.8147 3.94865C15.0832 4.21977 15.2112 4.52787 15.2112 4.88289V6.52982C15.2112 6.89884 15.0817 7.20932 14.8167 7.47398C14.573 7.70691 14.2976 7.83204 13.9834 7.85531H13.8738Z" fill="#2A136A" stroke="#2A136A" stroke-width="0.634904"/>
<path d="M59.8935 11.4706C59.8935 10.5145 59.5636 9.68733 58.906 9.00586C59.5608 8.31983 59.8895 7.49019 59.8895 6.52982V4.88289C59.8895 3.89157 59.5348 3.03879 58.828 2.34337C58.122 1.63277 57.2622 1.27557 56.2664 1.27557H43.0317H42.7143V1.59302V3.23995V3.5574H43.0317H44.3691V16.4074V16.4114V16.7289H44.6866H46.3414H46.6589V16.4114V10.1451H56.2664C56.6281 10.1451 56.9345 10.2728 57.2072 10.5404C57.4757 10.8115 57.6037 11.1196 57.6037 11.4746V13.1216C57.6037 14.1194 57.9533 14.9765 58.6532 15.6731C59.3604 16.3769 60.2246 16.7289 61.2309 16.7289H61.5483V16.4114V14.7645V14.447H61.2309C60.8569 14.447 60.5438 14.3202 60.2787 14.0644C60.0196 13.7953 59.8935 13.4873 59.8935 13.1176V11.4706ZM56.2664 7.85531H46.6589V3.55341H56.2664C56.6281 3.55341 56.9345 3.6811 57.2072 3.94865C57.4757 4.21977 57.6037 4.52787 57.6037 4.88289V6.52982C57.6037 6.89884 57.4743 7.20932 57.2093 7.47398C56.9655 7.70691 56.6902 7.83204 56.376 7.85531H56.2664Z" fill="#2A136A" stroke="#2A136A" stroke-width="0.634904"/>
<path d="M111.191 16.4074V16.7249H111.508H114.011H114.207L114.295 16.5486L115.842 13.431H125.375L126.95 16.5505L127.038 16.7249H127.233H129.703H130.021V16.4074V14.7605V14.443H129.703H128.244L121.717 1.45051L121.629 1.27557H121.433H119.778H119.583L119.495 1.4505L112.967 14.443H111.508H111.191V14.7605V16.4074ZM116.98 11.1532L120.602 3.94681L124.224 11.1532H116.98Z" fill="#2A136A" stroke="#2A136A" stroke-width="0.634904"/>
<path d="M87.0825 14.443H86.7651V14.7605V16.4074V16.4114V16.7289H87.0825H90.3922H90.7096V16.4114V3.5614H91.888L101.637 16.6015L101.733 16.7289H101.892H106.852H107.17V16.4114V14.7645V14.447H106.852H105.515V3.5574H106.852H107.17V3.23995V1.59302V1.27557H106.852H103.551H103.233L103.233 1.59282L103.225 14.443H102.874L93.1247 1.40293L93.0294 1.27557H92.8704H87.0825H86.7651V1.59302V3.23995V3.5574H87.0825H88.4199V14.443H87.0825Z" fill="#2A136A" stroke="#2A136A" stroke-width="0.634904"/>
<path d="M23.1728 16.4074V16.7249H23.4903H38.3757H38.6932V16.4074V14.7525V14.4351H38.3757H25.4626V10.1411H33.4153H33.7327V9.82369V8.17676V7.85931H33.4153H25.4626V3.5574H38.3757H38.6932V3.23995V1.59302V1.27557H38.3757H21.8354H21.518V1.59302V3.23995V3.5574H21.8354H23.1728V16.4074Z" fill="#2A136A" stroke="#2A136A" stroke-width="0.634904"/>
<path d="M67.2241 16.4074V16.7249H67.5415H82.427H82.7444V16.4074V14.7525V14.4351H82.427H69.5138V10.1411H77.4665H77.784V9.82369V8.17676V7.85931H77.4665H69.5138V3.5574H82.427H82.7444V3.23995V1.59302V1.27557H82.427H65.8867H65.5693V1.59302V3.23995V3.5574H65.8867H67.2241V16.4074Z" fill="#2A136A" stroke="#2A136A" stroke-width="0.634904"/>
</svg>
